<svg width="73" height="26" viewBox="0 0 73 26" fill="none" xmlns="http://www.w3.org/2000/svg">
<path d="M14.857 12.9484C15.0214 13.8881 15.0133 14.7819 14.8326 15.6297C14.6569 16.4706 14.329 17.2253 13.8491 17.894C13.375 18.5617 12.7611 19.1259 12.0072 19.5867C11.2533 20.0475 10.3828 20.3642 9.39582 20.5369L4.44893 21.4021L2.19887 8.53844L7.14577 7.67316C8.13278 7.50051 9.05905 7.50295 9.92459 7.68048C10.7901 7.858 11.5597 8.18327 12.2332 8.65629C12.9117 9.12236 13.4763 9.72104 13.927 10.4523C14.3837 11.1826 14.6937 12.0146 14.857 12.9484ZM12.1265 13.426C12.0086 12.7522 11.814 12.162 11.5426 11.6551C11.2712 11.1483 10.9375 10.7377 10.5414 10.4232C10.1453 10.1088 9.69029 9.89293 9.17641 9.77572C8.66844 9.65748 8.11303 9.65108 7.51018 9.75652L5.24064 10.1535L6.76187 18.8505L9.03141 18.4535C9.63426 18.348 10.155 18.1564 10.5937 17.8787C11.0373 17.594 11.392 17.2366 11.6579 16.8063C11.9227 16.3702 12.0967 15.8677 12.18 15.2988C12.2632 14.73 12.2454 14.1057 12.1265 13.426Z" fill="black"/>
<path d="M26.6272 11.5611C27.0645 11.5358 27.4388 11.4601 27.75 11.3339C28.0609 11.2018 28.3126 11.034 28.5052 10.8305C28.6975 10.6211 28.8339 10.3818 28.9145 10.1127C28.9951 9.84361 29.0264 9.55332 29.0084 9.24184C28.9728 8.62487 28.7384 8.15761 28.3054 7.84006C27.8783 7.52217 27.2455 7.38745 26.4069 7.43591L25.0052 7.51691L25.2435 11.641L26.6272 11.5611ZM33.3404 18.0606L30.9054 18.2013C30.4502 18.2276 30.1107 18.073 29.887 17.7373L27.1761 13.8823C27.0652 13.7324 26.9448 13.6252 26.8149 13.5606C26.6909 13.4956 26.5092 13.4701 26.2696 13.4839L25.3531 13.5369L25.6402 18.5056L22.9447 18.6613L22.1914 5.62408L26.2885 5.38733C27.199 5.33472 27.9832 5.38556 28.6412 5.53986C29.2989 5.68816 29.8441 5.9181 30.2768 6.22965C30.7094 6.54121 31.0351 6.92506 31.2538 7.38121C31.4721 7.83136 31.5974 8.33497 31.6296 8.89204C31.6545 9.32332 31.6153 9.73727 31.512 10.1339C31.4144 10.5242 31.2579 10.8848 31.0427 11.2158C30.8274 11.5467 30.5562 11.8449 30.2289 12.1102C29.9017 12.3755 29.5237 12.5957 29.0951 12.7707C29.2744 12.8565 29.4429 12.964 29.6006 13.0931C29.7579 13.2162 29.9019 13.3672 30.0324 13.5459L33.3404 18.0606Z" fill="black"/>
<path d="M52.6216 12.2963C52.5635 13.2486 52.3479 14.1221 51.9749 14.9168C51.6078 15.7119 51.1127 16.388 50.4896 16.9451C49.8725 17.5026 49.1433 17.927 48.302 18.2183C47.4611 18.5036 46.5405 18.6158 45.5404 18.5548C44.5403 18.4938 43.6402 18.2705 42.8402 17.8851C42.0405 17.4937 41.3653 16.9836 40.8146 16.3549C40.2638 15.7262 39.8516 14.9948 39.5779 14.1606C39.3102 13.3267 39.2054 12.4337 39.2635 11.4814C39.3215 10.5292 39.534 9.65853 39.9007 8.8694C40.2738 8.07464 40.7719 7.39871 41.3949 6.84162C42.018 6.28452 42.75 5.86331 43.5909 5.57799C44.4322 5.28667 45.353 5.17152 46.3531 5.23254C47.3532 5.29355 48.2531 5.51976 49.0528 5.91118C49.8528 6.29661 50.525 6.80648 51.0694 7.44081C51.6201 8.06951 52.0294 8.80079 52.2971 9.63464C52.5712 10.4629 52.6793 11.3501 52.6216 12.2963ZM49.8638 12.1281C49.9054 11.4454 49.8528 10.829 49.706 10.2791C49.5596 9.72311 49.3272 9.24608 49.0089 8.84796C48.6969 8.44421 48.3044 8.12872 47.8313 7.9015C47.3646 7.66865 46.8259 7.53359 46.215 7.49633C45.6041 7.45906 45.05 7.52745 44.5524 7.70147C44.0553 7.86951 43.6243 8.13477 43.2596 8.49723C42.9012 8.85407 42.6155 9.2995 42.4026 9.83353C42.1901 10.3616 42.063 10.967 42.0213 11.6497C41.9793 12.3384 42.0315 12.9607 42.1779 13.5167C42.3247 14.0666 42.5543 14.5405 42.8667 14.9383C43.185 15.3364 43.5805 15.652 44.0532 15.8853C44.5262 16.1125 45.0682 16.2447 45.6791 16.282C46.2899 16.3193 46.8409 16.2537 47.3321 16.0853C47.8296 15.9113 48.2576 15.6458 48.616 15.289C48.9803 14.9325 49.2688 14.4903 49.4814 13.9622C49.6943 13.4282 49.8217 12.8168 49.8638 12.1281Z" fill="black"/>
<path d="M64.7528 14.1092C65.5852 14.2603 66.2297 14.1699 66.6863 13.8382C67.1488 13.5074 67.4433 12.9938 67.5698 12.2972C67.6276 11.9784 67.63 11.68 67.5768 11.402C67.5305 11.1192 67.4237 10.8681 67.2562 10.6486C67.0957 10.4244 66.874 10.2347 66.5911 10.0797C66.3082 9.92469 65.9602 9.80968 65.5469 9.73466L63.8644 9.42923L63.0703 13.8037L64.7528 14.1092ZM65.9135 7.71566C66.7931 7.87534 67.5329 8.11636 68.133 8.43872C68.739 8.76216 69.2148 9.14735 69.5606 9.59429C69.9074 10.0353 70.1321 10.5274 70.2347 11.0704C70.3433 11.6146 70.3435 12.1848 70.2352 12.781C70.1205 13.4127 69.9122 13.9725 69.6102 14.4604C69.3082 14.9483 68.9133 15.3431 68.4256 15.6449C67.9379 15.9466 67.3559 16.1459 66.6797 16.2426C66.0047 16.3335 65.2391 16.3013 64.3831 16.1459L62.7006 15.8404L61.8984 20.2592L59.2419 19.777L61.5744 6.92797L65.9135 7.71566Z" fill="black"/>
</svg>
