<svg width="31" height="23" viewBox="0 0 31 23" fill="none" xmlns="http://www.w3.org/2000/svg">
<path d="M0 6.57143H6.52632V0H0V6.57143ZM0 14.7857H6.52632V8.21429H0V14.7857ZM8.15789 14.7857H14.6842V8.21429H8.15789V14.7857ZM16.3158 14.7857H22.8421V8.21429H16.3158V14.7857ZM8.15789 6.57143H14.6842V0H8.15789V6.57143ZM16.3158 0V6.57143H22.8421V0H16.3158ZM24.4737 14.7857H31V8.21429H24.4737V14.7857ZM0 23H6.52632V16.4286H0V23ZM8.15789 23H14.6842V16.4286H8.15789V23ZM16.3158 23H22.8421V16.4286H16.3158V23ZM24.4737 23H31V16.4286H24.4737V23ZM24.4737 0V6.57143H31V0H24.4737Z" fill="#1D1D1D"/>
</svg>
