<svg width="248" height="248" viewBox="0 0 248 248" fill="none" xmlns="http://www.w3.org/2000/svg">
<circle cx="124" cy="124" r="121" fill="white" stroke="black" stroke-width="6"/>
<path d="M164.791 113.02L165.013 114.147L166.159 114.226C180.338 115.208 191.5 126.873 191.5 141.25C191.5 156.292 179.292 168.5 164.25 168.5H89.5C71.2959 168.5 56.5 153.704 56.5 135.5C56.5 118.506 69.3699 104.481 85.9211 102.722L86.7212 102.637L87.0929 101.923C94.0327 88.5985 107.964 79.5 124 79.5C144.199 79.5 161.017 93.8716 164.791 113.02ZM89.5 160H164.25C174.623 160 183 151.623 183 141.25C183 130.877 174.623 122.5 164.25 122.5H157.125V121.125C157.125 102.817 142.308 88 124 88C109.216 88 96.782 97.6559 92.4712 111H89.5C75.9641 111 65 121.964 65 135.5C65 149.036 75.9641 160 89.5 160Z" fill="black" stroke="white" stroke-width="3"/>
</svg>
