<svg width="95" height="32" viewBox="0 0 95 32" fill="none" xmlns="http://www.w3.org/2000/svg">
<path d="M56.077 8.466C56.077 9.42 55.915 10.299 55.591 11.103C55.273 11.901 54.82 12.588 54.232 13.164C53.65 13.74 52.948 14.19 52.126 14.514C51.304 14.838 50.392 15 49.39 15H44.368V1.941H49.39C50.392 1.941 51.304 2.103 52.126 2.427C52.948 2.751 53.65 3.204 54.232 3.786C54.82 4.362 55.273 5.049 55.591 5.847C55.915 6.645 56.077 7.518 56.077 8.466ZM53.305 8.466C53.305 7.782 53.215 7.167 53.035 6.621C52.855 6.075 52.597 5.613 52.261 5.235C51.925 4.857 51.514 4.566 51.028 4.362C50.548 4.158 50.002 4.056 49.39 4.056H47.086V12.885H49.39C50.002 12.885 50.548 12.786 51.028 12.588C51.514 12.384 51.925 12.093 52.261 11.715C52.597 11.331 52.855 10.866 53.035 10.32C53.215 9.774 53.305 9.156 53.305 8.466ZM62.1474 8.124C62.5854 8.124 62.9634 8.07 63.2814 7.962C63.5994 7.848 63.8604 7.695 64.0644 7.503C64.2684 7.305 64.4184 7.074 64.5144 6.81C64.6104 6.546 64.6584 6.258 64.6584 5.946C64.6584 5.328 64.4514 4.848 64.0374 4.506C63.6294 4.164 63.0054 3.993 62.1654 3.993H60.7614V8.124H62.1474ZM68.4744 15H66.0354C65.5794 15 65.2494 14.826 65.0454 14.478L62.5614 10.473C62.4594 10.317 62.3454 10.203 62.2194 10.131C62.0994 10.059 61.9194 10.023 61.6794 10.023H60.7614V15H58.0614V1.941H62.1654C63.0774 1.941 63.8574 2.037 64.5054 2.229C65.1534 2.415 65.6844 2.676 66.0984 3.012C66.5124 3.348 66.8154 3.75 67.0074 4.218C67.1994 4.68 67.2954 5.19 67.2954 5.748C67.2954 6.18 67.2324 6.591 67.1064 6.981C66.9864 7.365 66.8094 7.716 66.5754 8.034C66.3414 8.352 66.0534 8.634 65.7114 8.88C65.3694 9.126 64.9794 9.324 64.5414 9.474C64.7154 9.57 64.8774 9.687 65.0274 9.825C65.1774 9.957 65.3124 10.116 65.4324 10.302L68.4744 15ZM82.1579 8.466C82.1579 9.42 81.9959 10.305 81.6719 11.121C81.3539 11.937 80.9009 12.642 80.3129 13.236C79.7309 13.83 79.0289 14.298 78.2069 14.64C77.3849 14.976 76.4729 15.144 75.4709 15.144C74.4689 15.144 73.5569 14.976 72.7349 14.64C71.9129 14.298 71.2079 13.83 70.6199 13.236C70.0319 12.642 69.5759 11.937 69.2519 11.121C68.9339 10.305 68.7749 9.42 68.7749 8.466C68.7749 7.512 68.9339 6.63 69.2519 5.82C69.5759 5.004 70.0319 4.299 70.6199 3.705C71.2079 3.111 71.9129 2.646 72.7349 2.31C73.5569 1.968 74.4689 1.797 75.4709 1.797C76.4729 1.797 77.3849 1.968 78.2069 2.31C79.0289 2.646 79.7309 3.114 80.3129 3.714C80.9009 4.308 81.3539 5.013 81.6719 5.829C81.9959 6.639 82.1579 7.518 82.1579 8.466ZM79.3949 8.466C79.3949 7.782 79.3049 7.17 79.1249 6.63C78.9449 6.084 78.6839 5.622 78.3419 5.244C78.0059 4.86 77.5949 4.569 77.1089 4.371C76.6289 4.167 76.0829 4.065 75.4709 4.065C74.8589 4.065 74.3099 4.167 73.8239 4.371C73.3379 4.569 72.9239 4.86 72.5819 5.244C72.2459 5.622 71.9879 6.084 71.8079 6.63C71.6279 7.17 71.5379 7.782 71.5379 8.466C71.5379 9.156 71.6279 9.774 71.8079 10.32C71.9879 10.86 72.2459 11.319 72.5819 11.697C72.9239 12.075 73.3379 12.366 73.8239 12.57C74.3099 12.768 74.8589 12.867 75.4709 12.867C76.0829 12.867 76.6289 12.768 77.1089 12.57C77.5949 12.366 78.0059 12.075 78.3419 11.697C78.6839 11.319 78.9449 10.86 79.1249 10.32C79.3049 9.774 79.3949 9.156 79.3949 8.466ZM88.5397 8.439C89.3857 8.439 90.0037 8.235 90.3937 7.827C90.7897 7.419 90.9877 6.861 90.9877 6.153C90.9877 5.829 90.9367 5.535 90.8347 5.271C90.7387 5.001 90.5887 4.773 90.3847 4.587C90.1867 4.395 89.9347 4.248 89.6287 4.146C89.3227 4.044 88.9597 3.993 88.5397 3.993H86.8297V8.439H88.5397ZM88.5397 1.941C89.4337 1.941 90.2047 2.046 90.8527 2.256C91.5067 2.466 92.0437 2.76 92.4637 3.138C92.8837 3.51 93.1927 3.954 93.3907 4.47C93.5947 4.986 93.6967 5.547 93.6967 6.153C93.6967 6.795 93.5917 7.383 93.3817 7.917C93.1717 8.451 92.8537 8.91 92.4277 9.294C92.0017 9.678 91.4647 9.978 90.8167 10.194C90.1687 10.404 89.4097 10.509 88.5397 10.509H86.8297V15H84.1297V1.941H88.5397ZM47.086 20.056V23.665H51.784V25.789H47.086V31H44.368V17.941H52.684V20.056H47.086ZM57.2813 31H54.5633V17.941H57.2813V31ZM67.7615 28.804V31H60.0125V17.941H62.7125V28.804H67.7615ZM72.1348 20.056V23.413H76.4908V25.456H72.1348V28.885H77.7328V31H69.4168V17.941H77.7328V20.056H72.1348ZM86.8268 20.443C86.7428 20.581 86.6558 20.683 86.5658 20.749C86.4818 20.809 86.3708 20.839 86.2328 20.839C86.1008 20.839 85.9568 20.794 85.8008 20.704C85.6508 20.608 85.4738 20.506 85.2698 20.398C85.0658 20.29 84.8318 20.191 84.5678 20.101C84.3038 20.005 83.9948 19.957 83.6408 19.957C83.0168 19.957 82.5488 20.098 82.2368 20.38C81.9248 20.656 81.7688 21.019 81.7688 21.469C81.7688 21.757 81.8528 21.997 82.0208 22.189C82.1948 22.375 82.4198 22.537 82.6958 22.675C82.9778 22.813 83.2958 22.936 83.6498 23.044C84.0038 23.152 84.3668 23.272 84.7388 23.404C85.1108 23.53 85.4738 23.68 85.8278 23.854C86.1818 24.028 86.4968 24.247 86.7728 24.511C87.0548 24.775 87.2798 25.099 87.4478 25.483C87.6218 25.861 87.7088 26.323 87.7088 26.869C87.7088 27.463 87.6038 28.021 87.3938 28.543C87.1898 29.059 86.8928 29.512 86.5028 29.902C86.1128 30.286 85.6298 30.589 85.0538 30.811C84.4838 31.033 83.8358 31.144 83.1098 31.144C82.6958 31.144 82.2818 31.102 81.8678 31.018C81.4598 30.934 81.0638 30.817 80.6798 30.667C80.3018 30.517 79.9448 30.337 79.6088 30.127C79.2728 29.917 78.9788 29.683 78.7268 29.425L79.5188 28.147C79.5848 28.051 79.6718 27.973 79.7798 27.913C79.8878 27.847 80.0018 27.814 80.1218 27.814C80.2838 27.814 80.4548 27.874 80.6348 27.994C80.8148 28.114 81.0218 28.246 81.2558 28.39C81.4898 28.534 81.7598 28.666 82.0658 28.786C82.3778 28.906 82.7498 28.966 83.1818 28.966C83.8118 28.966 84.2978 28.822 84.6398 28.534C84.9878 28.246 85.1618 27.817 85.1618 27.247C85.1618 26.917 85.0748 26.65 84.9008 26.446C84.7328 26.242 84.5108 26.071 84.2348 25.933C83.9588 25.795 83.6438 25.678 83.2898 25.582C82.9358 25.48 82.5728 25.369 82.2008 25.249C81.8288 25.129 81.4658 24.985 81.1118 24.817C80.7578 24.649 80.4428 24.427 80.1668 24.151C79.8908 23.875 79.6658 23.533 79.4918 23.125C79.3238 22.717 79.2398 22.21 79.2398 21.604C79.2398 21.118 79.3358 20.647 79.5278 20.191C79.7198 19.735 80.0018 19.33 80.3738 18.976C80.7458 18.622 81.2018 18.337 81.7418 18.121C82.2878 17.905 82.9118 17.797 83.6138 17.797C84.3998 17.797 85.1258 17.92 85.7918 18.166C86.4638 18.406 87.0308 18.742 87.4928 19.174L86.8268 20.443Z" fill="black"/>
<circle cx="15" cy="17" r="13" stroke="black" stroke-width="4"/>
</svg>
